HIERARCHY
ROOT Hips
{
	OFFSET 0.00000 0.00000 0.00000
	CHANNELS 6 Xposition Yposition Zposition Zrotation Yrotation Xrotation 
	JOINT LHipJoint
	{
		OFFSET 0 0 0
		CHANNELS 3 Zrotation Yrotation Xrotation
		JOINT LeftHip
		{
			OFFSET 1.54859 -1.61379 0.86856
			CHANNELS 3 Zrotation Yrotation Xrotation
			JOINT LeftKnee
			{
				OFFSET 2.25087 -6.18423 0.00000
				CHANNELS 3 Zrotation Yrotation Xrotation
				JOINT LeftAnkle
				{
					OFFSET 2.40328 -6.60297 0.00000
					CHANNELS 3 Zrotation Yrotation Xrotation
					JOINT LeftToe
					{
						OFFSET 0.17435 -0.47901 2.02453
						CHANNELS 3 Zrotation Yrotation Xrotation
						End Site
						{
							OFFSET 0.00000 -0.00000 1.04844
						}
					}
				}
			}
		}
	}
	JOINT RHipJoint
	{
		OFFSET 0 0 0
		CHANNELS 3 Zrotation Yrotation Xrotation
		JOINT RightHip
		{
			OFFSET -1.54669 -1.61379 0.86856
			CHANNELS 3 Zrotation Yrotation Xrotation
			JOINT RightKnee
			{
				OFFSET -2.28132 -6.26789 0.00000
				CHANNELS 3 Zrotation Yrotation Xrotation
				JOINT RightAnkle
				{
					OFFSET -2.51636 -6.91365 0.00000
					CHANNELS 3 Zrotation Yrotation Xrotation
					JOINT RightToe
					{
						OFFSET -0.15124 -0.41552 2.21090
						CHANNELS 3 Zrotation Yrotation Xrotation
						End Site
						{
							OFFSET -0.00000 -0.00000 1.13399
						}
					}
				}
			}
		}
	}
	JOINT lowerback
	{
		OFFSET 0 0 0
		CHANNELS 3 Zrotation Yrotation Xrotation
		JOINT Chest
		{
			OFFSET -0.04287 2.26161 -0.25690
			CHANNELS 3 Zrotation Yrotation Xrotation
			JOINT Chest2
			{
				OFFSET 0.02248 2.28395 -0.10140
				CHANNELS 3 Zrotation Yrotation Xrotation
				JOINT lowerneck
				{
					OFFSET 0 0 0
					CHANNELS 3 Zrotation Yrotation Xrotation
					JOINT Neck
					{
						OFFSET -0.11644 1.38496 0.11345
						CHANNELS 3 Zrotation Yrotation Xrotation
						JOINT Head
						{
							OFFSET 0.29383 1.36600 0.06642
							CHANNELS 3 Zrotation Yrotation Xrotation
							End Site
							{
								OFFSET 0.11075 1.41395 -0.00294
							}
						}
					}
				}
				JOINT LeftCollar
				{
					OFFSET 0 0 0
					CHANNELS 3 Zrotation Yrotation Xrotation
					JOINT LeftShoulder
					{
						OFFSET 3.51628 0.59542 -0.30346
CHANNELS 3 Zrotation Xrotation Yrotation
						JOINT LeftElbow
						{
OFFSET 0 -4.764050 0.000000
CHANNELS 3 Zrotation Xrotation Yrotation
							JOINT LeftWrist
							{
OFFSET 0 -3.137590 -0.000000
CHANNELS 3 Zrotation Xrotation Yrotation
								JOINT lhand
								{
									OFFSET 0 0 0
CHANNELS 3 Zrotation Xrotation Yrotation
									JOINT LFingers
									{
OFFSET 0 -0.732260 -0.000000
CHANNELS 3 Zrotation Xrotation Yrotation
										End Site
										{
OFFSET 0 -0.590370 -0.000000
										}
									}
								}
								JOINT LThumb
								{
OFFSET 0 0.000000 0.000000
CHANNELS 3 Zrotation Xrotation Yrotation
									End Site
									{
OFFSET 0 -0.599380 0.599380
									}
								}
							}
						}
					}
				}
				JOINT RightCollar
				{
					OFFSET 0 0 0
					CHANNELS 3 Zrotation Yrotation Xrotation
					JOINT RightShoulder
					{
						OFFSET -3.30990 0.84213 -0.36430
CHANNELS 3 Zrotation Xrotation Yrotation
						JOINT RightElbow
						{
OFFSET 0 -5.101610 -0.000000
CHANNELS 3 Zrotation Xrotation Yrotation
							JOINT RightWrist
							{
OFFSET 0 -3.232670 -0.000000
CHANNELS 3 Zrotation Xrotation Yrotation
								JOINT rhand
								{
									OFFSET 0 0 0
CHANNELS 3 Zrotation Xrotation Yrotation
									JOINT RFingers
									{
OFFSET 0 -0.702000 -0.000000
CHANNELS 3 Zrotation Xrotation Yrotation
										End Site
										{
OFFSET 0 -0.565970 -0.000000
										}
									}
								}
								JOINT RThumb
								{
OFFSET 0 0.000000 0.000000
CHANNELS 3 Zrotation Xrotation Yrotation
									End Site
									{
OFFSET 0 -0.574610 0.574610
									}
								}
							}
						}
					}
				}
			}
		}
	}
}
MOTION
Frames: 6
Frame Time: .0083333
-29.0950 15.8160 -13.2021 6.6507 -73.2582 -1.1428 0.0000 0.0000 0.0000 -14.8354 7.9124 -26.6319 4.9602 13.3389 40.6506 0.2118 -5.5483 -8.4980 2.1581 -9.1879 -26.3849 0.0000 0.0000 0.0000 9.8038 -1.7047 -31.1506 -5.9511 -14.3808 44.7850 -0.5585 -4.8022 -16.6874 -0.8540 5.8935 -16.4757 -1.8677 -1.3554 13.4029 2.8004 -2.2281 6.5879 4.2778 -1.3181 -0.3951 -18.4448 -8.3697 0.2618 26.1490 -10.0333 -13.8456 11.4722 -5.5599 -1.4212 -0.0000 0.0000 0.0000 7.1263 7.4978 -50.17 35.3213 -45.0402 15.0403 18.9765 -17.3302 -13.6433 0.0 0.0 0.0 -7.1250 0.0 0.0 -7.7602 44.2365 -0.1472 -0.0000 0.0000 0.0000 -11.1794 -15.3192 19.3339 -34.8263 -44.6877 -14.691 -23.5904 -21.8612 -24.1613 0.0 0.0 0.0 7.1250 0.0 -0.0 3.5223 3.9399 3.2783
-29.0080 15.7863 -13.2063 6.4087 -72.9368 -0.5964 0.0000 0.0000 0.0000 -14.5303 7.6905 -28.3188 5.3426 13.7595 42.2826 0.1510 -6.6828 -7.7923 2.5315 -9.8949 -28.6370 0.0000 0.0000 0.0000 9.4207 -1.8209 -32.7966 -6.3572 -14.7658 46.3991 -0.5577 -3.6775 -15.9270 -0.7716 5.6089 -15.6538 -1.4278 -1.4064 14.6575 2.8424 -2.2571 6.6270 4.1283 -1.3201 -1.0362 -18.4601 -8.3421 -0.3635 26.2922 -9.8238 -14.5671 11.5471 -5.4597 -1.5471 0.0000 0.0000 0.0000 7.2795 7.6986 -49.2953 36.2828 -45.7067 15.7246 18.8249 -17.7904 -12.5983 0.0 0.0 0.0 -7.1250 0.0 0.0 -7.6799 43.1344 -0.3558 0.0000 0.0000 0.0000 -12.467 -15.5611 19.3644 -36.9478 -46.154 -16.2024 -23.5879 -23.0651 -23.7972 0.0 0.0 0.0 7.1250 0.0 -0.0 3.4821 4.3236 3.2157
-28.9194 15.7434 -13.2063 6.5359 -72.6945 -0.3638 0.0000 0.0000 0.0000 -14.2532 7.5612 -30.1752 5.8011 14.2328 44.1781 0.0705 -8.1291 -7.0436 2.3504 -9.5606 -27.5653 0.0000 0.0000 0.0000 8.8728 -1.9599 -34.6114 -6.8167 -15.1756 48.1777 -0.5386 -2.5954 -15.0504 -0.9710 6.2733 -17.5795 -1.0787 -1.4228 15.8496 2.8868 -2.2424 6.6904 4.0249 -1.3055 -1.6132 -18.3675 -8.4463 -1.1132 26.1166 -9.8079 -15.1826 11.4584 -5.4345 -1.6123 0.0000 -0.0000 0.0000 7.1967 7.864 -48.1345 37.0860 -46.2455 16.3021 18.8165 -18.3475 -11.1665 0.0 0.0 0.0 -7.1250 0.0 0.0 -7.4148 41.6444 -0.6175 0.0000 -0.0000 0.0000 -14.1009 -15.9497 19.3972 -39.0977 -47.5261 -17.7708 -23.866 -24.6272 -23.591 0.0 0.0 0.0 7.1250 0.0 -0.0 3.2869 4.4897 3.0246
-28.8309 15.6895 -13.2102 6.2427 -72.4392 0.4863 0.0000 0.0000 0.0000 -13.8127 7.4950 -32.2876 6.2452 14.6618 45.9581 -0.0157 -9.5888 -6.4457 2.0411 -8.9511 -25.6425 0.0000 0.0000 0.0000 8.4381 -1.9685 -36.6355 -7.2720 -15.5567 49.8957 -0.4974 -1.8133 -14.1046 -1.2472 7.0809 -19.9553 -0.6963 -1.4667 16.7850 3.0209 -2.2511 6.8013 3.9899 -1.3087 -1.9956 -17.9561 -8.4958 -2.1455 25.6114 -9.6967 -15.8361 11.1927 -5.3515 -1.7111 -0.0000 0.0000 0.0000 6.9051 7.8321 -46.6902 37.9263 -46.7922 16.9119 18.929 -18.8848 -9.8491 0.0 0.0 0.0 -7.1250 0.0 0.0 -7.0904 40.2809 -0.8297 -0.0000 0.0000 0.0000 -15.9305 -16.6425 19.2487 -41.4408 -48.9007 -19.5181 -24.0679 -26.3719 -23.6071 0.0 0.0 0.0 7.1250 0.0 -0.0 3.1640 4.4352 2.9144
-28.7403 15.6221 -13.2148 4.5124 -72.2702 2.9066 0.0000 0.0000 0.0000 -12.8312 7.2351 -34.5625 6.6946 15.0692 47.7096 -0.0412 -10.2846 -6.5205 1.9873 -8.8395 -25.2945 0.0000 0.0000 0.0000 8.5014 -1.7988 -38.8498 -7.7077 -15.9000 51.5029 -0.4648 -1.1827 -13.3609 -1.4508 7.6138 -21.5471 0.0758 -1.5606 17.5498 3.2500 -2.2531 6.9008 3.8269 -1.3063 -2.3087 -17.2848 -8.5205 -3.5026 24.9487 -9.5570 -16.3325 10.8070 -5.2454 -1.7474 0.0000 0.0000 0.0000 6.4898 7.7107 -44.9801 38.6786 -47.2672 17.4623 19.6531 -19.7111 -8.782 0.0 0.0 0.0 -7.1250 0.0 0.0 -6.3010 39.2218 -0.9013 0.0000 0.0000 0.0000 -17.7897 -17.4723 19.0099 -44.0070 -50.2726 -21.4723 -24.0717 -28.0401 -23.6642 0.0 0.0 0.0 7.1250 0.0 -0.0 3.1684 4.3741 2.922
-28.6538 15.5546 -13.2149 6.3605 -72.4034 1.4769 0.0000 0.0000 0.0000 -12.9389 7.0436 -35.9842 7.0995 15.4151 49.2497 0.0469 -9.6720 -7.5628 2.1825 -9.2362 -26.5370 0.0000 0.0000 0.0000 7.2818 -1.6490 -40.5489 -8.1048 -16.1958 52.9393 -0.4200 -0.7804 -12.5489 -1.5146 7.7719 -22.0233 -0.2572 -1.4144 18.6533 3.1640 -2.1263 7.0833 3.9453 -1.2527 -2.6874 -16.7225 -8.5192 -4.3743 24.4052 -9.4199 -17.1687 10.5330 -5.1804 -1.9476 0.0000 0.0000 0.0000 5.8644 7.6308 -43.1939 39.1274 -47.5444 17.7927 21.0641 -21.268 -7.4784 0.0 0.0 0.0 -7.1250 0.0 0.0 -4.9244 37.9451 -0.8578 0.0000 0.0000 0.0000 -20.0702 -18.3335 18.7262 -46.4326 -51.4513 -23.3539 -24.6768 -30.2263 -23.8411 0.0 0.0 0.0 7.1250 0.0 -0.0 2.8163 4.0721 2.6124
